<svg version="1.1" id="Popcorn--Streamline-Noto-Emoji" xmlns="http://www.w3.org/2000/svg" xmlns:xlink="http://www.w3.org/1999/xlink" x="0" y="0" viewBox="0 0 32 32" xml:space="preserve" enable-background="new 0 0 128 128" height="32" width="32">
  <desc>
    Popcorn Streamline Emoji: https://streamlinehq.com
  </desc>
  <path d="m5.1775 11.14 -1.63 -1.4825s-0.0675 -0.7375 0.51 -0.9725c0.6575 -0.2675 1.29 0.0475 1.29 0.0475l0.9975 1.92 -1.1675 0.4875z" fill="#B40E1C" stroke-width="0.25"></path>
  <path d="m26.675 11.19 -1.41 -1.1175 0.9475 -1.385s0.49 -0.3975 1.3375 0.025c0.6475 0.3225 0.8075 0.9475 0.7325 1.14 -0.0725 0.1925 -1.6075 1.3375 -1.6075 1.3375z" fill="#B40E1C" stroke-width="0.25"></path>
  <path d="m5.6875 10.8725 -0.7875 -0.2125s-0.09 -0.3725 0.08 -0.7025c0.1775 -0.3425 0.525 -0.305 0.525 -0.305s-0.8375 -0.4075 -0.4725 -1.405 1.4825 -0.7775 1.4825 -0.7775 -0.025 -0.6325 0.4875 -1.0225c0.51 -0.39 0.9 -0.0975 0.9 -0.0975s-0.395 -1.2625 0.5825 -1.8475c0.835 -0.5 1.41 -0.025 1.41 -0.025s0.3375 -0.845 1.2625 -0.8625c0.6925 -0.0125 0.9025 0.255 0.9025 0.255s0.2425 -0.4875 0.6325 -0.705c0.39 -0.22 0.6225 -0.1875 0.6225 -0.1875s-0.1775 -0.605 0.01 -1.1c0.33 -0.875 1.24 -1.07 1.92 -0.9 0.9325 0.2325 0.8175 0.8775 0.8175 0.8775s0.4725 -0.3175 0.91 -0.2675c0.4375 0.0475 0.6675 0.3375 0.6675 0.3375s0.305 -0.895 1.325 -0.895c1.0225 0 1.3125 0.6075 1.3625 1.07s-0.2575 1.0075 -0.2575 1.0075 0.1475 0.0575 0.1925 0.4075c0.035 0.265 -0.0675 0.5 -0.0675 0.5s0.47 -0.37 1.4075 0c1.555 0.6125 1.23 2.2675 1.23 2.2675s0.45 -0.0525 0.79 0.0925c0.39 0.1675 0.57 0.4425 0.57 0.4425s0.0875 -0.725 0.9975 -0.73c0.95 -0.005 1.7275 1.775 1.5575 2.285 -0.17 0.51 -0.6325 0.6325 -0.6325 0.6325s0.4225 0.12 0.58 0.6325c0.1875 0.605 0.0325 1.2475 0.0325 1.2475s-6.595 4.025 -6.6675 4 -8.245 0.6075 -8.245 0.6075L5.6875 10.8725z" fill="#FFB91F" stroke-width="0.25"></path>
  <path d="M8.71 12.1175c0 -0.0525 0.075 -0.27 0.2225 -0.365 0.1825 -0.1175 0.455 -0.13 0.455 -0.13s-0.3 -0.1425 -0.4675 -0.6125c-0.11 -0.305 0.025 -0.635 0.025 -0.635s-0.7925 0.0375 -0.975 -0.5625 0.105 -0.6775 0.105 -0.6775 -0.3175 -1.7025 1.015 -1.7325c1.8225 -0.04 1.51 2.2775 1.51 2.2775s0.26 0 0.4175 0.1425c0.155 0.1425 0.2075 0.2875 0.2075 0.2875s0.34 -0.5125 1.145 -0.39c1.9 0.2875 1.015 2.1475 1.015 2.1475s-0.3525 -0.9625 -0.9625 -1.0025c-0.6125 -0.04 -1.3675 0.3775 -1.3675 0.3775s1.1575 0.1425 1.47 0.755 0.2875 1.445 0.2875 1.445 -2.3175 0.6775 -2.37 0.6c-0.055 -0.075 -1.7325 -1.925 -1.7325 -1.925z" fill="#FCE193" stroke-width="0.25"></path>
  <path d="M10.1525 10.0875c-0.1675 -0.0725 -0.6375 0.34 -0.6475 0.6475 -0.01 0.3075 0.25 0.7 0.56 0.7275 0.3075 0.0275 0.615 -0.29 0.615 -0.5975 0 -0.155 -0.32 -0.6875 -0.5275 -0.7775z" fill="#E17A2C" stroke-width="0.25"></path>
  <path d="M11.5675 6.6375s-1.2475 -0.18 -1.2225 0.85c0.0325 1.365 1.57 1.1625 1.5825 1.235 0.0125 0.0725 0.075 0.5375 0.075 0.5375s0.6075 -0.07 1.195 0.2775 0.84 0.755 0.84 0.755 0.12 -0.5625 0.2875 -0.8025c0.1675 -0.24 0.3475 -0.42 0.3475 -0.42s0 -0.3 -0.085 -0.54c-0.06 -0.1725 -0.2025 -0.2625 -0.2025 -0.2625s1.35 -0.64 0.67 -1.7025c-0.7675 -1.1975 -1.99 -0.085 -1.99 -0.085s-0.48 -0.695 -1.0775 -0.5275c-0.6 0.1675 -0.42 0.685 -0.42 0.685z" fill="#FCE193" stroke-width="0.25"></path>
  <path d="M14.635 11.13s-0.36 -1.235 0.3125 -1.5825 1.115 0.0475 1.1375 -0.025 1.0675 -1.1875 1.965 -1.1625c1.33 0.035 1.635 0.88 1.665 0.97 0.1475 0.43 -0.0475 1.1275 -0.0475 1.1275s0.5025 -0.78 1.2225 -0.7075c0.72 0.0725 0.8 0.6475 0.8 0.6475s0.795 0.4925 0.7575 0.96c-0.035 0.4675 -0.54 0.815 -0.54 0.815l-1.2225 1.1975 -1.3175 -0.455s-0.18 -0.6 -0.18 -0.97c0 -0.3725 0.035 -0.67 0.035 -0.67s-0.36 0.1925 -0.61 0.2625c-0.2525 0.0725 -0.78 0.085 -0.78 0.085s-0.02 -0.3025 -0.5275 -0.6475c-1.1125 -0.755 -2.67 0.155 -2.67 0.155z" fill="#FCE193" stroke-width="0.25"></path>
  <path d="M15.1625 12.795s-0.4075 -1.48 0.7675 -1.51c1.4025 -0.035 1.605 1.21 1.655 1.905 0.0475 0.695 -1.81 1.7625 -1.8825 1.725 -0.0725 -0.035 -1.8125 -1.105 -1.8125 -1.105s-0.1325 -0.385 0.16 -0.7275c0.305 -0.3625 1.1125 -0.2875 1.1125 -0.2875z" fill="#FCE193" stroke-width="0.25"></path>
  <path d="M22.965 12.1125s-0.4075 -0.335 -0.2875 -0.97 0.61 -0.67 0.61 -0.67 -0.3725 -0.575 -0.1925 -0.9475 0.4675 -0.455 1.39 -0.4425 1.39 0.2625 1.69 0.5875c0.27 0.29 0.095 1.175 0.095 1.175s-1.365 1.6425 -1.5225 1.605c-0.155 -0.0375 -1.7825 -0.3375 -1.7825 -0.3375z" fill="#FCE193" stroke-width="0.25"></path>
  <path d="M19.14 7.835s0.48 0.3 0.635 0.5275c0.155 0.2275 0.36 0.66 0.36 0.66s0.1 -1.17 0.5825 -1.74c0.5275 -0.6225 1.215 -0.5975 1.2275 -0.5975 0.13 0 0.3475 -0.97 -0.155 -1.485 -0.63 -0.645 -1.7125 -0.42 -1.7025 -0.3225s0.395 0.5625 0.145 1.6425c-0.2325 0.985 -1.0925 1.315 -1.0925 1.315z" fill="#FCE193" stroke-width="0.25"></path>
  <path d="M15.785 8.0625c0.1925 0.0975 0.535 -0.225 0.8275 -0.36 0.335 -0.155 0.7675 -0.215 0.78 -0.3825s-0.4675 -0.7675 -1.1625 -0.4325c-0.695 0.335 -0.66 1.0675 -0.445 1.175z" fill="#FCE193" stroke-width="0.25"></path>
  <path d="M5.455 8.6425c-0.06 0.61 0.5625 0.8 0.5625 0.8s-0.0775 0.5625 0.145 0.8875c0.18 0.2625 0.5525 0.5875 0.7075 0.5525 0.155 -0.035 0.6475 -0.5025 0.6475 -0.54 0 -0.035 -0.0275 -1.3775 -0.3125 -1.8575 -0.395 -0.675 -1.6425 -0.925 -1.75 0.1575z" fill="#FCE193" stroke-width="0.25"></path>
  <path d="M7.6375 7.835c0.1675 0 0.335 -0.3825 0.4325 -0.5275 0.095 -0.145 0.455 -0.3825 0.455 -0.3825s-0.5525 -0.3825 -0.9 -0.035c-0.3475 0.345 -0.24 0.945 0.0125 0.945z" fill="#FCE193" stroke-width="0.25"></path>
  <path d="M8.9775 6.745s0.335 -0.035 0.5275 -0.025c0.1925 0.0125 0.515 0.0725 0.515 0.0725s0.0475 -0.3125 0.395 -0.54c0.3475 -0.2275 0.67 -0.155 0.67 -0.155s0.0725 -0.4325 0.3475 -0.6225c0.275 -0.1925 0.4425 -0.1925 0.4425 -0.1925s0.255 -0.655 -0.12 -0.9c-1.0675 -0.695 -1.615 0.7 -1.7975 0.73 -0.135 0.0225 -0.605 -0.445 -1.12 -0.085 -0.875 0.615 0.14 1.7175 0.14 1.7175z" fill="#FCE193" stroke-width="0.25"></path>
  <path d="M12.3575 5.175s0.2875 0.0725 0.5025 0.2025 0.54 0.36 0.54 0.36l1.5825 -0.0475s0.3475 -0.455 0.85 -0.66c0.41 -0.1675 0.8875 -0.18 0.8875 -0.18s0.045 -1.17 -0.9225 -1.475c-1.2225 -0.3825 -1.63 0.8625 -1.63 0.8625s-0.36 -0.405 -0.78 -0.395c-0.9325 0.025 -1.03 1.3325 -1.03 1.3325z" fill="#FCE193" stroke-width="0.25"></path>
  <path d="M14.1425 4.755c-0.145 0 -0.995 0.73 -1.0175 0.8025 -0.025 0.0725 0.2025 0.1925 0.2275 0.2625 0.025 0.0725 1.5575 -0.095 1.6425 -0.155 0.0825 -0.06 -0.5275 -0.91 -0.8525 -0.91z" fill="#E17A2C" stroke-width="0.25"></path>
  <path d="M12.2275 7.2225c0.0075 0.1425 0.7075 1.0775 0.9225 1.115s0.925 -0.755 0.72 -0.935c-0.095 -0.085 -0.8025 0.0125 -0.8025 0.0125s-0.0125 -0.5275 -0.0725 -0.61c-0.0625 -0.085 -0.78 0.18 -0.7675 0.4175z" fill="#E17A2C" stroke-width="0.25"></path>
  <path d="M13.965 3.125c0.1825 0.005 0.3475 -0.67 0.5625 -0.8875s0.73 -0.4325 0.61 -0.7675 -1.0425 -0.24 -1.3425 0.2525c-0.3325 0.5475 -0.2275 1.39 0.17 1.4025z" fill="#FCE193" stroke-width="0.25"></path>
  <path d="M16.5175 2.945c0.0375 0.165 0.5025 0.36 0.575 0.4425 0.0725 0.085 0.4075 0.3825 0.4075 0.3825s0.7675 -0.1925 1.2225 -0.0725c0.455 0.12 0.67 0.4425 0.8025 0.36 0.1325 -0.085 0.06 -0.4425 -0.0125 -0.5625s-0.215 -0.3475 -0.215 -0.3475 0.69 -1.07 -0.025 -1.2475c-1.0175 -0.2525 -1.2225 0.78 -1.355 0.8025s-0.515 -0.3825 -0.935 -0.3225c-0.4175 0.0625 -0.515 0.35 -0.465 0.565z" fill="#FCE193" stroke-width="0.25"></path>
  <path d="M17.0925 6.025c0.17 0.3775 0.7075 0.4075 0.7075 0.4075s0.2625 0.84 0.8025 0.91c0.54 0.0725 0.895 -0.49 1.0075 -0.9575 0.145 -0.6 0.1475 -1.8975 -1.1875 -1.8825 -1.0075 0.0125 -1.4375 1.2825 -1.33 1.5225z" fill="#FCE193" stroke-width="0.25"></path>
  <path d="M22.3875 10.3025c0.1675 -0.005 0.055 -0.99 0.585 -1.39 0.5725 -0.4325 1.02 -0.3525 1.6075 -0.3125 0.61 0.04 1.0225 0.23 1.15 0.06 0.16 -0.21 0.2575 -1.675 -0.575 -1.7975 -0.4925 -0.0725 -0.6225 0.4075 -0.6225 0.4075s-0.5025 -0.1075 -0.78 0.395c-0.19 0.3475 -0.2025 0.575 -0.2875 0.6 -0.0375 0.01 -1.3225 -1.975 -2.325 -0.7675 -1.0425 1.2575 0.8625 2.3 0.8625 2.3s0.0625 0.5175 0.385 0.505z" fill="#FCE193" stroke-width="0.25"></path>
  <path d="M18.59 4.72c-0.0675 0.045 -0.095 1.21 -0.035 1.2225 0.06 0.0125 0.815 0.42 0.9225 0.3125 0.1075 -0.1075 0.1075 -0.66 -0.085 -1.0175 -0.12 -0.23 -0.5625 -0.675 -0.8025 -0.5175z" fill="#E17A2C" stroke-width="0.25"></path>
  <path d="M16.995 3.2575c-0.01 0.1225 0.155 0.7675 0.3475 0.79 0.32 0.04 0.91 -0.3 0.97 -0.42s-0.0475 -0.4675 -0.5275 -0.5875c-0.475 -0.1175 -0.7775 0.05 -0.79 0.2175z" fill="#E17A2C" stroke-width="0.25"></path>
  <path d="M17.115 10.555c0.1675 0.18 0.7475 -0.31 0.9575 -0.215 0.24 0.1075 0 0.73 0.2625 0.8025 0.2625 0.0725 0.79 -0.78 0.73 -1.15 -0.025 -0.155 -0.335 -0.36 -0.67 -0.48s-0.79 -0.2025 -0.995 -0.0725 -0.585 0.7925 -0.285 1.115z" fill="#E17A2C" stroke-width="0.25"></path>
  <path d="M24.125 11.4175s-0.025 -0.7675 0.18 -1.15c0.2025 -0.3825 0.72 -0.3225 0.8025 -0.2275s0.3725 0.79 0.3725 0.79l-0.61 1.0425 -0.745 -0.455z" fill="#E17A2C" stroke-width="0.25"></path>
  <g>
    <path d="m15.8375 15.3375 -2.39 -0.935 -0.0675 -0.105c-0.12 -0.1875 -1.695 -0.44 -1.695 -0.44l-0.14 -0.0275 -1.9625 -0.4225 -0.055 -0.095c-0.1225 -0.2075 -1.7025 -0.77 -1.7025 -0.77l-1.485 -0.6 -0.04 -0.0975c-0.1325 -0.3175 -1.1375 -0.8675 -1.16 -0.8225l-0.4475 -0.2225c0.1175 -0.2375 0.49 -0.63 1.055 -0.4025 0.4925 0.1975 1.055 0.88 1.1775 1.15l0.8075 0.4175c0.1975 -0.125 0.57 -0.25 1.08 -0.0725 0.74 0.26 0.935 0.8325 1.0875 1.07l1.625 0.35c0.1725 -0.14 0.5375 -0.375 1.025 -0.295 0.8525 0.14 1.06 0.6325 1.2375 0.8825l1.8725 0.16c0.1875 -0.2575 0.665 -0.8025 1.4075 -0.905 0.695 -0.0975 1.2025 0.1425 1.4075 0.3825l1.79 -0.6025c0.15 -0.2325 0.6675 -0.89 1.4775 -1.0375 0.755 -0.1375 1.3475 0.245 1.62 0.4175l1.195 -0.6125c0.1275 -0.215 0.54 -0.885 1.17 -1.0775 0.7875 -0.2375 1.2925 0.26 1.315 0.2775l-0.3375 0.37c-0.01 -0.01 -1.6525 0.9225 -1.6575 0.93l-0.3525 0.6075 -1.38 0.09 -0.125 -0.1c-0.005 -0.005 -2.5325 0.4525 -2.5375 0.46l-0.0475 0.0875 -2.26 0.76 -0.11 -0.1175c-0.015 -0.015 -2.3975 1.3475 -2.3975 1.3475z" fill="#DFDFDF" stroke-width="0.25"></path>
  </g>
  <path d="M26.93 11.645c-0.0575 0.005 -0.5275 -0.655 -1.14 -0.4 -0.6125 0.2575 -1.1975 1.31 -1.1975 1.31l-1.9075 0.3s-0.2575 -0.52 -0.97 -0.32c-0.7125 0.2 -1.3525 1.075 -1.3675 1.0175 -0.015 -0.0575 -2.1 0.475 -2.1 0.475S17.835 13.5675 17.1 13.75c-0.76 0.19 -1.1725 1.1225 -1.1725 1.1225l-2.3675 -0.47s-0.405 -0.68 -1.0175 -0.765c-0.6125 -0.085 -1.01 0.315 -1.01 0.315l-1.7675 -0.43s-0.27 -0.74 -1.04 -0.9975 -1.14 0.07 -1.14 0.07l-1.145 -0.7775s-0.3375 -0.555 -0.98 -0.855c-0.64 -0.3 -0.825 0.225 -0.825 0.225L8.625 27.975l7.64 3.1075 7.5425 -3.3025c0.005 0.0025 3.295 -16.1525 3.1225 -16.135z" fill="#FFFFFF" stroke-width="0.25"></path>
  <path d="m5.1775 11.14 -0.005 -0.0175c-0.07 -0.3275 -0.2525 -1.07 -0.685 -1.4075 -0.5625 -0.4375 -0.94 -0.06 -0.94 -0.06l4.3375 18.045 1.06 0.405 -3.7675 -16.965z" fill="#ED3D23" stroke-width="0.25"></path>
  <path d="M7.99 12.495s-0.0675 -1.1275 -0.9575 -1.395c-0.7075 -0.2125 -0.7375 0.515 -0.7375 0.515l3.5175 16.8475 1.3425 0.54 -3.165 -16.5075z" fill="#ED3D23" stroke-width="0.25"></path>
  <path d="M11.765 13.7975s-0.3625 -1.2125 -1.285 -1.315c-0.9225 -0.1025 -0.83 0.6725 -0.83 0.6725l2.3875 16.215 1.3425 0.545 -1.615 -16.1175z" fill="#ED3D23" stroke-width="0.25"></path>
  <path d="M14.6975 13.455c-1.0125 -0.1275 -1.1525 0.89 -1.1525 0.89l1.0475 16.065 1.68 0.675 -0.3 -16.295s-0.2125 -1.2 -1.275 -1.335z" fill="#ED3D23" stroke-width="0.25"></path>
  <path d="M20.51 13.5175s0.0525 -1.275 -1.0875 -0.9525c-1.14 0.32 -1.265 1.3875 -1.265 1.3875l-0.285 16.4375 1.415 -0.6275 1.2225 -16.245z" fill="#ED3D23" stroke-width="0.25"></path>
  <g>
    <path d="M24.7375 12.15s-0.0475 -1 -1.025 -0.7975c-1.025 0.21 -1.035 1.2425 -1.035 1.2425l-1.7975 16.4825 1.365 -0.6025 2.4925 -16.325z" fill="#ED3D23" stroke-width="0.25"></path>
    <path d="M27.3475 9.755c-0.84 0.4025 -0.9125 1.4825 -0.9125 1.4825l-2.8625 16.655 1.3425 -0.595 3.3775 -17.46c-0.0025 0 -0.21 -0.435 -0.945 -0.0825z" fill="#ED3D23" stroke-width="0.25"></path>
  </g>
</svg>